<svg width="27" height="34" viewBox="0 0 27 34" fill="none" xmlns="http://www.w3.org/2000/svg">
<path d="M0.865967 4.35344L2.2254 23.351C2.2254 23.351 3.5649 32.4412 13.0411 32.4613C13.045 32.4613 13.053 32.4613 13.057 32.4613C13.061 32.4613 13.069 32.4613 13.073 32.4613C22.5491 32.4412 23.8886 23.351 23.8886 23.351L25.4394 4.54667L13.073 1.24957L0.865967 4.35344Z" stroke="#4098AB" stroke-width="1.5" stroke-miterlimit="10"/>
<path fill-rule="evenodd" clip-rule="evenodd" d="M19.1446 13.653L18.9493 15.996L18.427 21.157L12.9494 22.2601H12.9574L8.12963 21.2536L7.81469 18.7859L7.80672 18.7939L7.63928 17.5701L10.2266 17.5862L10.5575 19.3374L12.9614 19.901V19.8889L16.2942 19.2327L16.6211 15.996L7.59144 15.9477L7.26852 13.6933H7.28447L13.4996 11.9421L7.12501 11.9461L6.83398 9.59906H19.6948L19.3758 12.401L15.469 13.653H19.1446Z" fill="#D9D9D9" stroke="#4098AB" stroke-width="1.5" stroke-miterlimit="10"/>
</svg>
