<svg width="28" height="40" viewBox="0 0 28 40" fill="none" xmlns="http://www.w3.org/2000/svg">
<path d="M7.67244 1H14.098V13.4814H7.6156C4.32595 13.4814 1.65479 10.802 1.65479 7.50225V7.03613C1.65479 3.70452 4.35103 1 7.67244 1Z" stroke="#4098AB" stroke-width="1.5" stroke-miterlimit="10"/>
<path d="M20.5236 13.4814L14.0981 13.4814L14.0981 1.00001L20.5804 1.00001C23.8701 1.00001 26.5413 3.67938 26.5413 6.97913V7.44526C26.5413 10.7769 23.845 13.4814 20.5236 13.4814Z" stroke="#4098AB" stroke-width="1.5" stroke-miterlimit="10"/>
<path d="M7.67244 13.4814H14.098V25.9628H7.6156C4.32595 25.9628 1.65479 23.2834 1.65479 19.9836V19.5175C1.65479 16.1859 4.35103 13.4814 7.67244 13.4814V13.4814Z" stroke="#4098AB" stroke-width="1.5" stroke-miterlimit="10"/>
<path d="M20.406 13.5931C23.8238 13.5931 26.5992 16.3765 26.5992 19.8053C26.5992 23.2655 23.7987 26.0745 20.3492 26.0745C16.9314 26.0745 14.156 23.2912 14.156 19.8623C14.156 16.4022 16.9564 13.5931 20.406 13.5931V13.5931Z" stroke="#4098AB" stroke-width="1.5" stroke-miterlimit="10"/>
<path d="M7.90479 25.9627H14.098V32.1749C14.098 35.635 11.2975 38.4441 7.84795 38.4441C4.43015 38.4441 1.65479 35.6608 1.65479 32.2319V32.2319C1.65479 28.7717 4.45522 25.9627 7.90479 25.9627V25.9627Z" stroke="#4098AB" stroke-width="1.5" stroke-miterlimit="10"/>
</svg>
