<svg width="15" height="15" viewBox="0 0 15 15" fill="none" xmlns="http://www.w3.org/2000/svg">
<g clip-path="url(#clip0_21_14533)">
<path d="M14.7157 7.49998C14.7157 3.51491 11.4851 0.284363 7.50005 0.284363C3.51497 0.284363 0.284424 3.51491 0.284424 7.49998C0.284424 11.4851 3.51497 14.7156 7.50005 14.7156C11.4851 14.7156 14.7157 11.4851 14.7157 7.49998Z" stroke="#D9D9D9" stroke-width="1.5" stroke-miterlimit="10"/>
<path d="M5.72172 5.89233H4.22778V10.7154H5.72172V5.89233Z" fill="#D9D9D9"/>
<path d="M4.96721 5.25909C5.45634 5.25909 5.85068 4.86096 5.85068 4.36804C5.85068 3.87512 5.45634 3.47699 4.96721 3.47699C4.47808 3.47699 4.08374 3.87512 4.08374 4.36804C4.08374 4.86096 4.47808 5.25909 4.96721 5.25909Z" fill="#D9D9D9"/>
<path d="M8.11051 8.18252C8.11051 7.50381 8.42143 7.10188 9.02052 7.10188C9.57032 7.10188 9.83195 7.48864 9.83195 8.18252V10.7154H11.3183V7.65927C11.3183 6.36629 10.5865 5.74066 9.56274 5.74066C8.53897 5.74066 8.11051 6.53692 8.11051 6.53692V5.88854H6.67725V10.7116H8.11051V8.17873V8.18252Z" fill="#D9D9D9"/>
</g>
<defs>
<clipPath id="clip0_21_14533">
<rect width="15" height="15" fill="white"/>
</clipPath>
</defs>
</svg>
