<svg width="15" height="15" viewBox="0 0 15 15" fill="none" xmlns="http://www.w3.org/2000/svg">
<g clip-path="url(#clip0_21_14520)">
<path d="M7.50005 14.7156C3.51496 14.7156 0.284424 11.4851 0.284424 7.49998C0.284424 3.5149 3.51496 0.284363 7.50005 0.284363C11.4851 0.284363 14.7157 3.5149 14.7157 7.49998C14.7157 11.4851 11.4851 14.7156 7.50005 14.7156Z" stroke="#D9D9D9" stroke-width="1.5" stroke-miterlimit="10"/>
<path d="M7.50003 4.25807C8.55792 4.25807 8.68305 4.26186 9.10013 4.28082C9.48689 4.29978 9.69543 4.36424 9.83573 4.41732C10.0215 4.48936 10.1504 4.57657 10.2907 4.71307C10.431 4.85337 10.5144 4.98228 10.5865 5.16808C10.6396 5.30837 10.704 5.51692 10.723 5.90367C10.7419 6.32076 10.7457 6.44588 10.7457 7.50377C10.7457 8.56166 10.7419 8.68678 10.723 9.10387C10.704 9.49063 10.6396 9.69917 10.5865 9.83946C10.5144 10.0253 10.4272 10.1542 10.2907 10.2945C10.1542 10.431 10.0215 10.5182 9.83573 10.5902C9.69543 10.6433 9.48689 10.7078 9.10013 10.7267C8.68305 10.7457 8.55792 10.7495 7.50003 10.7495C6.44215 10.7495 6.31702 10.7457 5.89993 10.7267C5.51318 10.7078 5.30463 10.6433 5.16434 10.5902C4.97855 10.5182 4.84963 10.431 4.70934 10.2945C4.56904 10.1542 4.48562 10.0253 4.41358 9.83946C4.3605 9.69917 4.29604 9.49063 4.27708 9.10387C4.25812 8.68678 4.25433 8.56166 4.25433 7.50377C4.25433 6.44588 4.25812 6.32076 4.27708 5.90367C4.29604 5.51692 4.3605 5.30837 4.41358 5.16808C4.48562 4.98228 4.57283 4.85337 4.70934 4.71307C4.84963 4.57278 4.97855 4.48936 5.16434 4.41732C5.30463 4.36424 5.51318 4.29978 5.89993 4.28082C6.31702 4.26186 6.44215 4.25807 7.50003 4.25807ZM7.50003 3.54523C6.42698 3.54523 6.29048 3.54902 5.8696 3.56798C5.44872 3.58694 5.16055 3.65519 4.9103 3.75377C4.64867 3.85615 4.42875 3.98886 4.20883 4.20878C3.98891 4.4287 3.85241 4.64861 3.75382 4.91024C3.65524 5.16049 3.59078 5.44866 3.57182 5.86954C3.55286 6.29042 3.54907 6.42693 3.54907 7.49998C3.54907 8.57303 3.55286 8.70953 3.57182 9.13041C3.59078 9.55129 3.65903 9.83946 3.75382 10.0897C3.8562 10.3513 3.98891 10.5713 4.20883 10.7912C4.42875 11.0111 4.64867 11.1476 4.9103 11.2462C5.16055 11.3448 5.44872 11.4092 5.8696 11.432C6.29048 11.4509 6.42698 11.4547 7.50003 11.4547C8.57309 11.4547 8.70959 11.4509 9.13047 11.432C9.55135 11.413 9.83952 11.3448 10.0898 11.2462C10.3514 11.1438 10.5713 11.0111 10.7912 10.7912C11.0112 10.5713 11.1477 10.3513 11.2462 10.0897C11.3448 9.83946 11.4093 9.55129 11.432 9.13041C11.451 8.70953 11.4548 8.57303 11.4548 7.49998C11.4548 6.42693 11.451 6.29042 11.432 5.86954C11.4131 5.44866 11.3448 5.16049 11.2462 4.91024C11.1439 4.64861 11.0112 4.4287 10.7912 4.20878C10.5713 3.98886 10.3514 3.85236 10.0898 3.75377C9.83952 3.65519 9.55135 3.59073 9.13047 3.56798C8.70959 3.54902 8.57309 3.54523 7.50003 3.54523Z" fill="#D9D9D9"/>
<path d="M7.50013 5.46765C6.37778 5.46765 5.46777 6.37766 5.46777 7.50001C5.46777 8.62235 6.37778 9.53236 7.50013 9.53236C8.62248 9.53236 9.53249 8.62235 9.53249 7.50001C9.53249 6.37766 8.62248 5.46765 7.50013 5.46765ZM7.50013 8.81952C6.77212 8.81952 6.18061 8.22802 6.18061 7.50001C6.18061 6.772 6.77212 6.18049 7.50013 6.18049C8.22814 6.18049 8.81964 6.772 8.81964 7.50001C8.81964 8.22802 8.22814 8.81952 7.50013 8.81952Z" fill="#D9D9D9"/>
<path d="M10.0859 5.38803C10.0859 5.64965 9.87353 5.86199 9.6119 5.86199C9.35028 5.86199 9.13794 5.64965 9.13794 5.38803C9.13794 5.1264 9.35028 4.91406 9.6119 4.91406C9.87353 4.91406 10.0859 5.1264 10.0859 5.38803Z" fill="#D9D9D9"/>
</g>
<defs>
<clipPath id="clip0_21_14520">
<rect width="15" height="15" fill="white"/>
</clipPath>
</defs>
</svg>
