<svg width="15" height="15" viewBox="0 0 15 15" fill="none" xmlns="http://www.w3.org/2000/svg">
<g clip-path="url(#clip0_21_14517)">
<path d="M14.7157 7.49998C14.7157 3.51491 11.4851 0.284363 7.50005 0.284363C3.51497 0.284363 0.284424 3.51491 0.284424 7.49998C0.284424 11.4851 3.51497 14.7156 7.50005 14.7156C11.4851 14.7156 14.7157 11.4851 14.7157 7.49998Z" stroke="#D9D9D9" stroke-width="1.5" stroke-miterlimit="10"/>
<path d="M6.4005 11.8605H8.15606V7.46207H9.38079L9.5097 5.99089H8.15227V5.15292C8.15227 4.80409 8.22052 4.66759 8.55799 4.66759H9.5097V3.13953H8.29257C6.98443 3.13953 6.39671 3.71587 6.39671 4.81546V5.99089H5.48291V7.48103H6.39671V11.8605H6.4005Z" fill="#D9D9D9"/>
</g>
<defs>
<clipPath id="clip0_21_14517">
<rect width="15" height="15" fill="white"/>
</clipPath>
</defs>
</svg>
