<svg width="15" height="15" viewBox="0 0 15 15" fill="none" xmlns="http://www.w3.org/2000/svg">
<g clip-path="url(#clip0_21_14540)">
<path d="M7.50005 14.7156C3.51496 14.7156 0.284424 11.4851 0.284424 7.49998C0.284424 3.5149 3.51496 0.284363 7.50005 0.284363C11.4851 0.284363 14.7157 3.5149 14.7157 7.49998C14.7157 11.4851 11.4851 14.7156 7.50005 14.7156Z" stroke="#D9D9D9" stroke-width="1.5" stroke-miterlimit="10"/>
<path d="M3.65527 9.9153C4.35295 10.3627 5.18333 10.6243 6.07438 10.6243C9.00158 10.6243 10.6586 8.15215 10.56 5.93021C10.8671 5.7065 11.1363 5.42971 11.3487 5.11499C11.0643 5.24012 10.7609 5.32354 10.4424 5.36145C10.7685 5.16808 11.0188 4.85716 11.1363 4.48936C10.833 4.67136 10.4955 4.80028 10.1353 4.87232C9.84713 4.5652 9.43763 4.37561 8.98262 4.37561C7.96265 4.37561 7.21569 5.32733 7.44698 6.31317C6.13505 6.24871 4.97479 5.61929 4.1937 4.66378C3.7804 5.37283 3.97757 6.3018 4.68283 6.77197C4.42499 6.76439 4.18232 6.69234 3.96619 6.5748C3.95103 7.3066 4.47428 7.98911 5.23262 8.14078C5.00891 8.20144 4.76624 8.21661 4.51978 8.16732C4.72074 8.79295 5.30467 9.25175 5.99476 9.26312C5.33121 9.78259 4.49703 10.0139 3.65906 9.9153H3.65527Z" fill="#D9D9D9"/>
</g>
<defs>
<clipPath id="clip0_21_14540">
<rect width="15" height="15" fill="white"/>
</clipPath>
</defs>
</svg>
