<svg width="27" height="34" viewBox="0 0 27 34" fill="none" xmlns="http://www.w3.org/2000/svg">
<path d="M0.865967 4.35344L2.2254 23.351C2.2254 23.351 3.5649 32.4412 13.0411 32.4613C13.045 32.4613 13.053 32.4613 13.057 32.4613C13.061 32.4613 13.069 32.4613 13.073 32.4613C22.5491 32.4412 23.8886 23.351 23.8886 23.351L25.4394 4.54667L13.073 1.24957L0.865967 4.35344Z" stroke="#4098AB" stroke-width="1.5" stroke-miterlimit="10"/>
<path fill-rule="evenodd" clip-rule="evenodd" d="M20.556 14.8043L19.9979 22.562L14.2053 24.3615L14.1934 24.3172L14.1854 24.3535L7.79887 22.9082L7.58359 19.0918H9.85596L9.97157 21.0765L14.1735 21.9702L17.8052 20.843L17.9846 17.1031H7.88259V17.087L7.55569 17.1031C7.55569 17.1031 7.55569 17.099 7.55569 17.095C7.53575 16.7448 7.00952 9.35748 7.00952 9.35748H20.7633L20.4603 11.6562H9.59683L9.73237 14.8084H20.552L20.556 14.8043Z" fill="#D9D9D9" stroke="#4098AB" stroke-width="1.5" stroke-miterlimit="10"/>
</svg>
