<svg width="28" height="34" viewBox="0 0 28 34" fill="none" xmlns="http://www.w3.org/2000/svg">
<path d="M1.70947 4.19289L3.08686 23.402C3.08686 23.402 4.44496 32.5937 14.0411 32.6142C14.0465 32.6142 14.0518 32.6142 14.0572 32.6142C14.0626 32.6142 14.068 32.6142 14.0734 32.6142C23.6695 32.5937 25.0276 23.402 25.0276 23.402L26.5995 4.38899L14.0734 1.05664L1.70947 4.19289Z" stroke="#4098AB" stroke-width="1.5" stroke-miterlimit="10"/>
<path fill-rule="evenodd" clip-rule="evenodd" d="M12.763 20.527L12.7808 11.0715L10.6437 11.0685L10.6317 20.2525L7.78564 19.886L7.99471 21.9797L10.9177 22.3091L12.7591 22.6025L12.763 20.5699L12.77 20.5279L12.763 20.527Z" fill="#D9D9D9" stroke="#4098AB" stroke-width="1.5" stroke-miterlimit="10"/>
<path fill-rule="evenodd" clip-rule="evenodd" d="M17.0596 13.2151L20.2391 13.2408L20.5235 11.0703H14.9187V13.1977H14.9224L14.9301 15.661H14.9187V17.8286L17.8012 17.8211L17.6652 20.3983L15.017 20.446L14.9822 22.5097H19.895L19.9757 20.3567L19.9686 20.3569L20.0871 17.8152L20.1053 17.815L20.2418 15.661H17.0672L17.0596 13.2151Z" fill="#D9D9D9" stroke="#4098AB" stroke-width="1.5" stroke-miterlimit="10"/>
</svg>
