<svg width="29" height="27" viewBox="0 0 29 27" fill="none" xmlns="http://www.w3.org/2000/svg">
<path d="M14.1243 25.2878C17.2029 25.2878 19.6986 20.0102 19.6986 13.5C19.6986 6.98974 17.2029 1.71216 14.1243 1.71216C11.0457 1.71216 8.55005 6.98974 8.55005 13.5C8.55005 20.0102 11.0457 25.2878 14.1243 25.2878Z" stroke="#4098AB" stroke-width="1.5" stroke-miterlimit="10"/>
<path d="M25.518 19.4096C27.0572 17.0149 23.2166 12.4347 16.9397 9.17963C10.6627 5.92452 4.32643 5.22705 2.78713 7.6218C1.24784 10.0166 5.08847 14.5967 11.3654 17.8518C17.6424 21.1069 23.9787 21.8044 25.518 19.4096Z" stroke="#4098AB" stroke-width="1.5" stroke-miterlimit="10"/>
<path d="M16.9443 17.8332C23.2213 14.5781 27.0619 9.99795 25.5226 7.60319C23.9833 5.20844 17.647 5.90591 11.37 9.16102C5.09311 12.4161 1.25248 16.9963 2.79177 19.391C4.33107 21.7858 10.6674 21.0883 16.9443 17.8332Z" stroke="#4098AB" stroke-width="1.5" stroke-miterlimit="10"/>
<path d="M14.1107 15.5103C15.3166 15.5103 16.2941 14.6322 16.2941 13.5491C16.2941 12.4659 15.3166 11.5879 14.1107 11.5879C12.9048 11.5879 11.9272 12.4659 11.9272 13.5491C11.9272 14.6322 12.9048 15.5103 14.1107 15.5103Z" stroke="#4098AB" stroke-width="1.5" stroke-miterlimit="10"/>
</svg>
